<svg width="1080" height="1080" viewBox="0 0 1080 1080" fill="none" xmlns="http://www.w3.org/2000/svg">
<path d="M185.387 447.31C234.507 447.31 274.326 407.772 274.326 359C274.326 310.228 234.507 270.69 185.387 270.69C136.267 270.69 96.4473 310.228 96.4473 359C96.4473 407.772 136.267 447.31 185.387 447.31Z" fill="white"/>
<path d="M246.162 248.35C248.788 248.335 251.324 247.392 253.318 245.69C280.761 222.554 315.236 209.32 351.165 208.13C387.095 206.939 422.377 217.862 451.301 239.13C465.895 249.88 486.361 249.8 499.48 237.35C503.379 233.719 506.432 229.282 508.424 224.349C510.417 219.417 511.301 214.11 511.014 208.8C510.727 203.491 509.276 198.309 506.763 193.618C504.25 188.928 500.736 184.843 496.469 181.65C471.712 163.153 443.508 149.748 413.5 142.217C383.493 134.686 352.281 133.179 321.683 137.784C291.085 142.389 261.712 153.014 235.276 169.04C208.84 185.066 185.869 206.172 167.701 231.13C166.528 232.772 165.833 234.704 165.693 236.715C165.553 238.725 165.974 240.735 166.908 242.522C167.843 244.309 169.256 245.804 170.99 246.841C172.724 247.878 174.712 248.418 176.734 248.4L246.162 248.35Z" fill="white"/>
<path d="M676.435 288.55C669.385 281.869 659.965 278.244 650.237 278.467C640.51 278.69 631.268 282.743 624.533 289.74C617.186 297.38 603.314 314.61 579.416 344.4C542.168 390.83 479.837 468.53 455.467 488C431.608 507.07 403.093 524.71 356.41 524.71C334.328 524.72 312.484 520.155 292.268 511.305C272.051 502.455 253.903 489.512 238.975 473.3C237.938 472.157 236.673 471.241 235.261 470.611C233.849 469.981 232.322 469.65 230.775 469.64H166.838C164.89 469.632 162.974 470.14 161.288 471.113C159.603 472.086 158.207 473.488 157.244 475.176C156.282 476.863 155.788 478.776 155.812 480.716C155.836 482.657 156.378 484.557 157.383 486.22C178.182 520.235 207.415 548.348 242.27 567.856C277.125 587.363 316.431 597.61 356.41 597.61C426.429 597.61 470.733 569.38 501.497 544.79C529.882 522.11 579.587 461.18 636.839 389.79C654.223 368.13 672.2 345.73 677.63 340.13C680.966 336.673 683.582 332.593 685.328 328.124C687.075 323.655 687.917 318.887 687.806 314.092C687.695 309.298 686.633 304.573 684.682 300.189C682.73 295.806 679.928 291.85 676.435 288.55Z" fill="white"/>
<path d="M891.422 462.05C940.541 462.05 980.361 422.512 980.361 373.74C980.361 324.968 940.541 285.43 891.422 285.43C842.302 285.43 802.482 324.968 802.482 373.74C802.482 422.512 842.302 462.05 891.422 462.05Z" fill="white"/>
<path d="M830.646 484.39C828.02 484.405 825.485 485.348 823.49 487.05C796.049 510.185 761.577 523.422 725.649 524.62C689.722 525.818 654.439 514.906 625.507 493.65C610.913 482.9 590.447 482.98 577.328 495.43C573.43 499.061 570.377 503.498 568.384 508.431C566.391 513.363 565.507 518.671 565.794 523.98C566.081 529.289 567.532 534.471 570.045 539.162C572.558 543.852 576.072 547.938 580.339 551.13C605.096 569.63 633.3 583.036 663.308 590.569C693.317 598.102 724.53 599.61 755.129 595.006C785.728 590.402 815.102 579.777 841.539 563.751C867.976 547.725 890.948 526.618 909.117 501.66C910.29 500.019 910.985 498.086 911.125 496.076C911.265 494.065 910.845 492.055 909.91 490.268C908.975 488.481 907.563 486.987 905.828 485.949C904.094 484.912 902.106 484.372 900.084 484.39H830.646Z" fill="white"/>
<path d="M400.373 444.19C407.423 450.871 416.843 454.496 426.57 454.273C436.298 454.05 445.54 449.997 452.275 443C459.622 435.36 473.504 418.13 497.392 388.34C534.64 341.91 596.971 264.21 621.341 244.74C645.199 225.67 673.715 208.02 720.398 208.02C742.481 208.011 764.324 212.578 784.541 221.43C804.758 230.282 822.906 243.226 837.833 259.44C838.87 260.583 840.135 261.499 841.547 262.129C842.958 262.759 844.486 263.09 846.033 263.1H909.95C911.898 263.108 913.814 262.6 915.499 261.627C917.185 260.654 918.581 259.252 919.543 257.564C920.506 255.877 921 253.964 920.976 252.023C920.952 250.083 920.409 248.183 919.405 246.52C898.607 212.507 869.378 184.396 834.527 164.889C799.675 145.382 760.373 135.134 720.398 135.13C650.379 135.13 606.075 163.36 575.311 187.95C546.926 210.63 497.221 271.56 439.969 342.95C422.585 364.63 404.608 387.04 399.178 392.69C395.855 396.145 393.248 400.221 391.509 404.682C389.77 409.143 388.931 413.902 389.042 418.687C389.153 423.472 390.211 428.187 392.156 432.564C394.1 436.94 396.892 440.891 400.373 444.19Z" fill="white"/>
<path d="M855.35 892.721C849.846 892.721 845.443 891.232 842.141 888.254C838.839 885.276 837.188 881.182 837.188 875.971V778.262C837.188 751.276 844.801 730.153 860.028 714.892C875.254 699.631 896.443 692 923.594 692C941.389 692 956.799 695.443 969.824 702.329C982.849 709.215 992.755 719.172 999.543 732.2C1006.51 745.228 1010 760.582 1010 778.262V875.971C1010 881.182 1008.35 885.276 1005.05 888.254C1001.74 891.232 997.342 892.721 991.838 892.721C986.335 892.721 981.84 891.232 978.354 888.254C975.052 885.09 973.401 880.996 973.401 875.971V830.467H873.787V875.971C873.787 880.996 872.044 885.09 868.558 888.254C865.256 891.232 860.853 892.721 855.35 892.721ZM973.401 801.712V777.425C973.401 758.814 969.182 744.856 960.743 735.55C952.488 726.058 940.105 721.313 923.594 721.313C890.389 721.313 873.787 740.017 873.787 777.425V801.712H973.401Z" fill="white"/>
<path d="M795.55 893C783.993 893 777.48 888.906 776.012 880.717C772.527 860.803 765.647 844.239 755.374 831.025C745.284 817.811 730.516 806.086 711.07 795.85L683.828 818.742V876.25C683.828 881.275 682.085 885.369 678.599 888.533C675.297 891.511 670.894 893 665.391 893C659.887 893 655.484 891.511 652.182 888.533C648.88 885.556 647.229 881.461 647.229 876.25V708.75C647.229 703.539 648.88 699.444 652.182 696.467C655.484 693.489 659.887 692 665.391 692C670.894 692 675.297 693.582 678.599 696.746C682.085 699.724 683.828 703.725 683.828 708.75V778.262L775.737 697.025C779.039 693.861 782.892 692.279 787.295 692.279C791.698 692.279 795.55 694.047 798.852 697.583C802.338 701.492 804.081 705.121 804.081 708.471C804.081 712.379 801.879 716.287 797.476 720.196L734.185 776.029C756.2 785.707 773.719 799.386 786.744 817.067C799.953 834.561 807.841 853.917 810.41 875.133C810.96 879.972 809.768 884.16 806.832 887.696C803.897 891.232 800.136 893 795.55 893Z" fill="white"/>
<path d="M463.812 893C458.309 893 453.906 891.511 450.604 888.533C447.301 885.556 445.65 881.461 445.65 876.25V771.004C445.65 746.251 453.264 726.896 468.49 712.937C483.717 698.979 504.814 692 531.781 692C558.749 692 579.846 698.979 595.072 712.937C610.299 726.896 617.912 746.251 617.912 771.004V876.25C617.912 881.461 616.261 885.556 612.959 888.533C609.657 891.511 605.254 893 599.75 893C594.247 893 589.752 891.511 586.266 888.533C582.964 885.369 581.313 881.275 581.313 876.25V770.167C581.313 754.347 577.094 742.25 568.655 733.875C560.216 725.5 547.925 721.313 531.781 721.313C515.637 721.313 503.346 725.5 494.907 733.875C486.468 742.25 482.249 754.347 482.249 770.167V876.25C482.249 881.275 480.506 885.369 477.021 888.533C473.719 891.511 469.316 893 463.812 893Z" fill="white"/>
<path d="M262.803 892.721C257.3 892.721 252.897 891.232 249.595 888.254C246.292 885.276 244.641 881.182 244.641 875.971V778.262C244.641 751.276 252.255 730.153 267.481 714.892C282.708 699.631 303.896 692 331.047 692C348.842 692 364.252 695.443 377.277 702.329C390.302 709.215 400.209 719.172 406.996 732.2C413.968 745.228 417.453 760.582 417.453 778.262V875.971C417.453 881.182 415.802 885.276 412.5 888.254C409.198 891.232 404.795 892.721 399.291 892.721C393.788 892.721 389.293 891.232 385.808 888.254C382.506 885.09 380.855 880.996 380.855 875.971V830.467H281.24V875.971C281.24 880.996 279.497 885.09 276.012 888.254C272.71 891.232 268.307 892.721 262.803 892.721ZM380.855 801.712V777.425C380.855 758.814 376.635 744.856 368.196 735.55C359.941 726.058 347.558 721.313 331.047 721.313C297.842 721.313 281.24 740.017 281.24 777.425V801.712H380.855Z" fill="white"/>
<path d="M114.029 890.208C100.086 890.208 89.2625 886.486 81.5575 879.042C73.8525 871.597 70 861.175 70 847.775V708.75C70 703.539 71.6511 699.444 74.9532 696.467C78.2553 693.489 82.6582 692 88.1618 692C93.6653 692 98.0682 693.582 101.37 696.746C104.856 699.724 106.599 703.725 106.599 708.75V847.775C106.599 852.056 107.608 855.406 109.626 857.825C111.827 860.244 114.762 861.454 118.431 861.454H206.488C211.992 861.454 216.211 862.757 219.147 865.362C222.082 867.782 223.549 871.318 223.549 875.971C223.549 880.437 221.99 883.974 218.871 886.579C215.936 888.999 211.808 890.208 206.488 890.208H114.029Z" fill="white"/>
</svg>
