<svg width="315" height="116" viewBox="0 0 315 116" fill="none" xmlns="http://www.w3.org/2000/svg">
<path d="M305.95 115.6C299.23 115.6 295.443 113.253 294.59 108.56C292.563 97.1467 288.563 87.6534 282.59 80.08C276.723 72.5067 268.137 65.7867 256.83 59.92L240.99 73.04V106C240.99 108.88 239.977 111.227 237.95 113.04C236.03 114.747 233.47 115.6 230.27 115.6C227.07 115.6 224.51 114.747 222.59 113.04C220.67 111.333 219.71 108.987 219.71 106V10C219.71 7.01336 220.67 4.66669 222.59 2.96003C224.51 1.25336 227.07 0.400024 230.27 0.400024C233.47 0.400024 236.03 1.30669 237.95 3.12003C239.977 4.82669 240.99 7.12002 240.99 10V49.84L294.43 3.28003C296.35 1.46669 298.59 0.56002 301.15 0.56002C303.71 0.56002 305.95 1.57336 307.87 3.60002C309.897 5.84002 310.91 7.92003 310.91 9.84003C310.91 12.08 309.63 14.32 307.07 16.56L270.27 48.56C283.07 54.1067 293.257 61.9467 300.83 72.08C308.51 82.1067 313.097 93.2 314.59 105.36C314.91 108.133 314.217 110.533 312.51 112.56C310.803 114.587 308.617 115.6 305.95 115.6Z" fill="white"/>
<path d="M113.064 115.6C109.864 115.6 107.304 114.747 105.384 113.04C103.464 111.333 102.504 108.987 102.504 106V45.68C102.504 31.4934 106.931 20.4 115.784 12.4C124.637 4.40003 136.904 0.400024 152.584 0.400024C168.264 0.400024 180.531 4.40003 189.384 12.4C198.237 20.4 202.664 31.4934 202.664 45.68V106C202.664 108.987 201.704 111.333 199.784 113.04C197.864 114.747 195.304 115.6 192.104 115.6C188.904 115.6 186.291 114.747 184.264 113.04C182.344 111.227 181.384 108.88 181.384 106V45.2C181.384 36.1334 178.931 29.2 174.024 24.4C169.117 19.6 161.971 17.2 152.584 17.2C143.197 17.2 136.051 19.6 131.144 24.4C126.237 29.2 123.784 36.1334 123.784 45.2V106C123.784 108.88 122.771 111.227 120.744 113.04C118.824 114.747 116.264 115.6 113.064 115.6Z" fill="white"/>
<path d="M26.56 114C18.4533 114 12.16 111.867 7.67996 107.6C3.19996 103.333 0.959961 97.36 0.959961 89.68V10C0.959961 7.01336 1.91996 4.66669 3.83996 2.96003C5.75996 1.25336 8.31996 0.400024 11.52 0.400024C14.72 0.400024 17.28 1.30669 19.2 3.12003C21.2266 4.82669 22.24 7.12002 22.24 10V89.68C22.24 92.1334 22.8266 94.0534 24 95.44C25.28 96.8267 26.9866 97.52 29.12 97.52H80.32C83.52 97.52 85.9733 98.2667 87.68 99.76C89.3866 101.147 90.24 103.173 90.24 105.84C90.24 108.4 89.3333 110.427 87.52 111.92C85.8133 113.307 83.4133 114 80.32 114H26.56Z" fill="white"/>
</svg>
