<svg width="314" height="116" viewBox="0 0 314 116" fill="none" xmlns="http://www.w3.org/2000/svg">
<path d="M304.99 115.2C298.27 115.2 294.483 112.853 293.63 108.16C291.603 96.7467 287.603 87.2533 281.63 79.68C275.763 72.1067 267.177 65.3867 255.87 59.52L240.03 72.64V105.6C240.03 108.48 239.017 110.827 236.99 112.64C235.07 114.347 232.51 115.2 229.31 115.2C226.11 115.2 223.55 114.347 221.63 112.64C219.71 110.933 218.75 108.587 218.75 105.6V9.6C218.75 6.61333 219.71 4.26667 221.63 2.56001C223.55 0.853335 226.11 0 229.31 0C232.51 0 235.07 0.906666 236.99 2.72C239.017 4.42666 240.03 6.72 240.03 9.6V49.44L293.47 2.88C295.39 1.06667 297.63 0.159996 300.19 0.159996C302.75 0.159996 304.99 1.17333 306.91 3.2C308.937 5.44 309.95 7.52 309.95 9.44C309.95 11.68 308.67 13.92 306.11 16.16L269.31 48.16C282.11 53.7067 292.297 61.5467 299.87 71.68C307.55 81.7067 312.137 92.8 313.63 104.96C313.95 107.733 313.257 110.133 311.55 112.16C309.843 114.187 307.657 115.2 304.99 115.2Z" fill="#009EA0"/>
<path d="M112.104 115.2C108.904 115.2 106.344 114.347 104.424 112.64C102.504 110.933 101.544 108.587 101.544 105.6V45.28C101.544 31.0933 105.971 20 114.824 12C123.677 4 135.944 0 151.624 0C167.304 0 179.571 4 188.424 12C197.277 20 201.704 31.0933 201.704 45.28V105.6C201.704 108.587 200.744 110.933 198.824 112.64C196.904 114.347 194.344 115.2 191.144 115.2C187.944 115.2 185.331 114.347 183.304 112.64C181.384 110.827 180.424 108.48 180.424 105.6V44.8C180.424 35.7333 177.971 28.8 173.064 24C168.157 19.2 161.011 16.8 151.624 16.8C142.237 16.8 135.091 19.2 130.184 24C125.277 28.8 122.824 35.7333 122.824 44.8V105.6C122.824 108.48 121.811 110.827 119.784 112.64C117.864 114.347 115.304 115.2 112.104 115.2Z" fill="#009EA0"/>
<path d="M25.6 113.6C17.4933 113.6 11.2 111.467 6.72 107.2C2.24 102.933 0 96.96 0 89.28V9.6C0 6.61333 0.96 4.26667 2.88 2.56001C4.8 0.853335 7.36 0 10.56 0C13.76 0 16.32 0.906666 18.24 2.72C20.2667 4.42666 21.28 6.72 21.28 9.6V89.28C21.28 91.7333 21.8667 93.6533 23.04 95.04C24.32 96.4267 26.0267 97.12 28.16 97.12H79.36C82.56 97.12 85.0133 97.8667 86.72 99.36C88.4267 100.747 89.28 102.773 89.28 105.44C89.28 108 88.3733 110.027 86.56 111.52C84.8533 112.907 82.4533 113.6 79.36 113.6H25.6Z" fill="#009EA0"/>
</svg>
